<mxfile host="app.diagrams.net" modified="2022-10-17T14:48:42.991Z" agent="5.0 (Windows NT 10.0; Win64; x64) AppleWebKit/537.36 (KHTML, like Gecko) Chrome/106.0.0.0 Safari/537.36" etag="xLaNDx8tKNOJWXL5gSw-" version="20.4.0" type="github">
  <diagram id="ppPR13k9YVrVqsrKeFTa" name="ページ1">
    <mxGraphModel dx="2012" dy="1750" grid="1" gridSize="10" guides="1" tooltips="1" connect="1" arrows="1" fold="1" page="1" pageScale="1" pageWidth="827" pageHeight="1169" math="0" shadow="0">
      <root>
        <mxCell id="0" />
        <mxCell id="1" parent="0" />
        <mxCell id="bOx0xzkVXavjxtpnU356-1" value="" style="group" vertex="1" connectable="0" parent="1">
          <mxGeometry width="360" height="280" as="geometry" />
        </mxCell>
        <mxCell id="kJNgmEBGxTDSGZDeVJwb-6" value="" style="endArrow=classic;html=1;rounded=0;" parent="bOx0xzkVXavjxtpnU356-1" edge="1">
          <mxGeometry width="50" height="50" relative="1" as="geometry">
            <mxPoint x="192" y="140.00000000000003" as="sourcePoint" />
            <mxPoint x="360" y="163.33333333333337" as="targetPoint" />
          </mxGeometry>
        </mxCell>
        <mxCell id="kJNgmEBGxTDSGZDeVJwb-7" value="" style="endArrow=classic;html=1;rounded=0;" parent="bOx0xzkVXavjxtpnU356-1" edge="1">
          <mxGeometry width="50" height="50" relative="1" as="geometry">
            <mxPoint x="201.6" y="186.6666666666667" as="sourcePoint" />
            <mxPoint x="360" y="256.6666666666667" as="targetPoint" />
          </mxGeometry>
        </mxCell>
        <mxCell id="kJNgmEBGxTDSGZDeVJwb-5" value="" style="endArrow=classic;html=1;rounded=0;" parent="bOx0xzkVXavjxtpnU356-1" edge="1">
          <mxGeometry width="50" height="50" relative="1" as="geometry">
            <mxPoint x="168" y="93.33333333333336" as="sourcePoint" />
            <mxPoint x="360" y="70.00000000000001" as="targetPoint" />
          </mxGeometry>
        </mxCell>
        <mxCell id="kJNgmEBGxTDSGZDeVJwb-1" value="" style="shape=parallelogram;perimeter=parallelogramPerimeter;whiteSpace=wrap;html=1;fixedSize=1;rotation=90;" parent="bOx0xzkVXavjxtpnU356-1" vertex="1">
          <mxGeometry x="48" y="70.00000000000001" width="288" height="140.00000000000003" as="geometry" />
        </mxCell>
        <mxCell id="kJNgmEBGxTDSGZDeVJwb-2" value="" style="endArrow=classic;html=1;rounded=0;fillColor=#ffe6cc;strokeColor=#d79b00;" parent="bOx0xzkVXavjxtpnU356-1" edge="1">
          <mxGeometry width="50" height="50" relative="1" as="geometry">
            <mxPoint y="186.6666666666667" as="sourcePoint" />
            <mxPoint x="168" y="186.6666666666667" as="targetPoint" />
          </mxGeometry>
        </mxCell>
        <mxCell id="kJNgmEBGxTDSGZDeVJwb-3" value="" style="endArrow=classic;html=1;rounded=0;fillColor=#ffe6cc;strokeColor=#d79b00;" parent="bOx0xzkVXavjxtpnU356-1" edge="1">
          <mxGeometry width="50" height="50" relative="1" as="geometry">
            <mxPoint y="138.83333333333337" as="sourcePoint" />
            <mxPoint x="168" y="138.83333333333337" as="targetPoint" />
          </mxGeometry>
        </mxCell>
        <mxCell id="kJNgmEBGxTDSGZDeVJwb-4" value="" style="endArrow=classic;html=1;rounded=0;fillColor=#ffe6cc;strokeColor=#d79b00;" parent="bOx0xzkVXavjxtpnU356-1" edge="1">
          <mxGeometry width="50" height="50" relative="1" as="geometry">
            <mxPoint y="93.33333333333336" as="sourcePoint" />
            <mxPoint x="168" y="93.33333333333336" as="targetPoint" />
          </mxGeometry>
        </mxCell>
      </root>
    </mxGraphModel>
  </diagram>
</mxfile>
